<svg xmlns="http://www.w3.org/2000/svg" width="420" height="96" viewBox="0 0 420 96" role="img" aria-labelledby="title desc">
  <title id="title">Financer Car Rental</title>
  <desc id="desc">A forward-moving F symbol with the light Financer Car Rental Jaipur wordmark.</desc>
  <rect x="4" y="4" width="88" height="88" rx="22" fill="#D96342"/>
  <path d="M27 21h49l-9 16H42l-5 12h27l-9 16H32l-7 17H11l20-61Z" fill="#FFFDF9"/>
  <path d="M26 67 20 82h-5l7-20h4Z" fill="#17221F"/>
  <path d="M30 55 27 62h-4l3-9h4Z" fill="#17221F"/>
  <path d="M52 73c2-6 7-10 14-10h7c6 0 10 3 13 10h3c2 0 3 1 3 3v4H49v-4c0-2 1-3 3-3Z" fill="#17221F"/>
  <circle cx="59" cy="81" r="4" fill="#FFFDF9"/><circle cx="82" cy="81" r="4" fill="#FFFDF9"/>
  <text x="116" y="46" fill="#FFFDF9" font-family="Arial, Helvetica, sans-serif" font-size="31" font-weight="800" letter-spacing="3.2">FINANCER</text>
  <text x="118" y="70" fill="#EF9A78" font-family="Arial, Helvetica, sans-serif" font-size="10" font-weight="700" letter-spacing="3.7">CAR RENTAL · JAIPUR</text>
</svg>
